HIERARCHY
ROOT Hips
{
    OFFSET 0.000000 0.000000 0.000000
    CHANNELS 6 Xposition Yposition Zposition Zrotation Xrotation Yrotation
    JOINT Spine
    {
        OFFSET -0.000000 8.312343 0.000000
        CHANNELS 3 Zrotation Xrotation Yrotation
        JOINT Spine1
        {
            OFFSET -0.000000 28.293047 0.000000
            CHANNELS 3 Zrotation Xrotation Yrotation
            JOINT Neck
            {
                OFFSET -0.000000 28.176853 2.561532
                CHANNELS 3 Zrotation Xrotation Yrotation
                JOINT Head
                {
                    OFFSET -0.000000 14.191803 -2.027400
                    CHANNELS 3 Zrotation Xrotation Yrotation
                    End Site
                    {
                        OFFSET -0.000000 25.342506 0.000000
                    }
                }
            }
            JOINT LeftShoulder
            {
                OFFSET 4.015815 26.370180 -0.268885
                CHANNELS 3 Zrotation Xrotation Yrotation
                JOINT LeftArm
                {
                    OFFSET 11.299099 0.000000 0.000000
                    CHANNELS 3 Zrotation Xrotation Yrotation
                    JOINT LeftForeArm
                    {
                        OFFSET 30.537071 0.000000 0.000000
                        CHANNELS 3 Zrotation Xrotation Yrotation
                        JOINT LeftHand
                        {
                            OFFSET 29.851767 0.000000 0.000000
                            CHANNELS 3 Zrotation Xrotation Yrotation
                            End Site
                            {
                                OFFSET 15.205504 0.000000 0.000000
                            }
                        }
                    }
                }
            }
            JOINT RightShoulder
            {
                OFFSET -4.091585 26.370180 -0.268885
                CHANNELS 3 Zrotation Xrotation Yrotation
                JOINT RightArm
                {
                    OFFSET -11.299099 0.000000 0.000000
                    CHANNELS 3 Zrotation Xrotation Yrotation
                    JOINT RightForeArm
                    {
                        OFFSET -30.537071 0.000000 0.000000
                        CHANNELS 3 Zrotation Xrotation Yrotation
                        JOINT RightHand
                        {
                            OFFSET -29.851767 0.000000 0.000000
                            CHANNELS 3 Zrotation Xrotation Yrotation
                            End Site
                            {
                                OFFSET -15.205504 0.000000 0.000000
                            }
                        }
                    }
                }
            }
        }
    }
    JOINT LeftUpLeg
    {
        OFFSET 10.137003 0.000000 0.000000
        CHANNELS 3 Zrotation Xrotation Yrotation
        JOINT LeftLeg
        {
            OFFSET -0.000000 -31.675148 0.000000
            CHANNELS 3 Zrotation Xrotation Yrotation
            JOINT LeftFoot
            {
                OFFSET -0.000000 -48.008553 0.000000
                CHANNELS 3 Zrotation Xrotation Yrotation
                JOINT LeftToeBase
                {
                    OFFSET -0.000000 -6.589051 15.205504
                    CHANNELS 3 Zrotation Xrotation Yrotation
                    End Site
                    {
                        OFFSET -0.000000 0.000000 4.054801
                    }
                }
            }
        }
    }
    JOINT RightUpLeg
    {
        OFFSET -10.137003 0.000000 0.000000
        CHANNELS 3 Zrotation Xrotation Yrotation
        JOINT RightLeg
        {
            OFFSET -0.000000 -31.675148 0.000000
            CHANNELS 3 Zrotation Xrotation Yrotation
            JOINT RightFoot
            {
                OFFSET -0.000000 -48.008553 0.000000
                CHANNELS 3 Zrotation Xrotation Yrotation
                JOINT RightToeBase
                {
                    OFFSET -0.000000 -6.589051 15.205504
                    CHANNELS 3 Zrotation Xrotation Yrotation
                    End Site
                    {
                        OFFSET -0.000000 0.000000 4.054801
                    }
                }
            }
        }
    }
}
MOTION
Frames:    14
Frame Time:    0.008333
99.221458    87.593719    -14.998425    -4.542855    -1.197495    84.030228    2.642616    -13.453709    -0.187150    -2.058394    3.661528    -0.433171    -0.829797    22.295797    -9.643828    12.353208    -1.824508    -8.144460    12.809531    -1.242173    -2.966815    -8.873411    -3.307510    6.811471    2.652944    2.748084    -0.931016    11.733422    3.061588    2.844678    -14.387010    0.034539    3.185456    17.463652    -2.212893    10.809779    -2.880051    -2.793723    0.811520    -9.261758    -2.891189    1.456676    13.207326    1.771800    2.844489    -4.008806    -3.528318    11.407714    -9.652320    8.629370    18.059584    0.000000    0.000000    0.000000    -4.726547    2.347270    2.062227    3.435110    -3.366876    -3.589406    8.257438    1.305241    -8.488914    0.000000    0.000000    0.000000    
99.225204    87.593880    -14.992823    -4.530720    -1.195609    84.058144    2.647159    -13.435137    -0.202210    -2.067463    3.637234    -0.448551    -0.820639    22.270912    -9.632734    12.314924    -1.887218    -8.131536    12.827650    -1.249747    -2.946503    -8.860730    -3.342655    6.759776    2.654197    2.761703    -0.945269    11.947742    3.081899    2.853730    -14.328107    0.167138    3.212289    17.394554    -2.272439    10.821476    -2.860751    -2.792240    0.804444    -9.329759    -2.888131    1.422689    13.215528    1.768687    2.854359    -4.022683    -3.510644    11.323930    -9.644583    8.618246    18.096771    0.000000    0.000000    0.000000    -4.724133    2.354352    2.058823    3.432786    -3.344482    -3.573009    8.239500    1.279451    -8.517394    0.000000    0.000000    0.000000    
99.232719    87.595703    -14.984408    -4.518575    -1.200077    84.079994    2.641393    -13.433172    -0.200934    -2.042570    3.644804    -0.447245    -0.809319    22.181150    -9.659543    12.239196    -1.863554    -8.172700    12.842553    -1.264555    -2.947725    -8.859800    -3.364988    6.698037    2.664354    2.789190    -0.990995    12.074367    3.130903    3.016538    -14.339655    0.154036    3.179945    17.414459    -2.269166    10.817811    -2.854171    -2.767917    0.772360    -9.291977    -2.864456    1.425941    13.249004    1.756584    2.838804    -4.063892    -3.460883    11.157236    -9.802638    8.567585    18.305502    0.000000    0.000000    0.000000    -4.716421    2.366362    2.089236    3.433423    -3.326269    -3.555928    8.237343    1.261919    -8.579734    0.000000    0.000000    0.000000    
99.239845    87.597206    -14.981988    -4.503551    -1.190245    84.098053    2.618552    -13.417050    -0.203711    -2.001422    3.614151    -0.448804    -0.882911    22.178667    -9.653047    12.273963    -1.886215    -8.162197    12.804695    -1.235183    -2.989748    -8.821686    -3.373494    6.687939    2.715197    2.855820    -1.003742    11.930915    3.183037    2.907247    -14.324673    0.193306    3.174394    17.396303    -2.334571    10.820872    -2.839712    -2.784600    0.750342    -9.233795    -2.881340    1.429657    13.216781    1.772312    2.870703    -4.029620    -3.476565    11.230144    -9.790584    8.634541    18.182678    0.000000    0.000000    0.000000    -4.727236    2.381557    2.115736    3.432962    -3.314244    -3.561618    8.205949    1.237085    -8.611097    0.000000    0.000000    0.000000    
99.247925    87.597366    -14.978978    -4.486155    -1.194939    84.120163    2.630994    -13.407830    -0.209483    -2.006411    3.615535    -0.455529    -0.846776    22.006109    -9.709884    12.145676    -1.698246    -8.258068    12.814851    -1.249798    -2.984657    -8.831083    -3.277631    6.675495    2.717202    2.815157    -1.075638    12.228396    3.157898    2.965002    -14.269089    0.231316    3.057506    17.354792    -2.426391    10.981265    -2.799211    -2.735811    0.678354    -9.133559    -2.840349    1.517801    13.225020    1.779070    2.870041    -4.034827    -3.465016    11.243887    -9.809131    8.626492    18.165174    0.000000    0.000000    0.000000    -4.721472    2.406764    2.118192    3.431189    -3.309519    -3.560007    8.211150    1.227745    -8.632113    0.000000    0.000000    0.000000    
99.254936    87.597023    -14.980464    -4.475068    -1.193461    84.140358    2.639189    -13.409346    -0.207163    -2.015645    3.614479    -0.453909    -0.814224    22.110521    -9.706314    12.150002    -1.949390    -8.226490    12.840162    -1.203577    -2.987400    -8.834931    -3.257031    6.598535    2.732315    2.827905    -1.054007    12.356858    3.173055    2.959731    -14.259531    0.234231    3.025031    17.371614    -2.468546    10.999513    -2.766900    -2.706444    0.683049    -9.158616    -2.801576    1.395030    13.220680    1.780573    2.829321    -4.033457    -3.451821    11.236878    -9.805082    8.620188    18.186708    0.000000    0.000000    0.000000    -4.724958    2.425229    2.116733    3.429439    -3.309310    -3.562315    8.215695    1.217506    -8.640289    0.000000    0.000000    0.000000    
99.262428    87.599052    -14.982033    -4.460264    -1.187718    84.149750    2.638805    -13.386355    -0.196953    -2.011943    3.572165    -0.443957    -0.825490    22.068937    -9.701653    12.106741    -1.874351    -8.236602    12.832407    -1.176623    -3.035554    -8.811625    -3.172797    6.586933    2.753837    2.816493    -1.065990    12.509341    3.166278    2.961223    -14.309203    0.207397    3.123549    17.452059    -2.482512    10.819621    -2.741390    -2.705453    0.717953    -9.304318    -2.804792    1.433131    13.207173    1.786298    2.852980    -4.028020    -3.441666    11.277806    -9.780076    8.654225    18.110472    0.000000    0.000000    0.000000    -4.729378    2.451579    2.111552    3.423629    -3.315976    -3.557697    8.225244    1.219645    -8.651387    0.000000    0.000000    0.000000    
99.272392    87.599098    -14.982250    -4.444393    -1.186608    84.157906    2.630936    -13.396199    -0.203030    -1.980644    3.596805    -0.449998    -0.858392    22.053684    -9.689389    12.079858    -1.907058    -8.226369    12.814244    -1.190783    -3.028214    -8.791765    -3.052393    6.553952    2.747720    2.803352    -1.065102    12.803843    3.159522    2.950312    -14.334372    0.181455    3.112371    17.470169    -2.483496    10.825302    -2.715819    -2.684921    0.707513    -9.423903    -2.790358    1.484047    13.208081    1.797512    2.872643    -4.036631    -3.421643    11.229859    -9.758624    8.639493    18.113392    0.000000    0.000000    0.000000    -4.731647    2.484683    2.101006    3.419286    -3.329390    -3.534160    8.258666    1.210664    -8.669670    0.000000    0.000000    0.000000    
99.284851    87.594078    -14.979911    -4.370086    -1.176243    84.155540    2.617832    -13.306121    -0.200407    -2.001475    3.544745    -0.443866    -0.798073    22.065346    -9.684069    12.015518    -1.918514    -8.226542    12.873726    -1.160527    -3.034245    -8.800612    -3.014906    6.509980    2.746827    2.802574    -1.057498    13.020826    3.161931    2.930533    -14.308155    0.199213    3.130659    17.467897    -2.437383    10.782952    -2.689713    -2.704172    0.730114    -9.629287    -2.810946    1.472602    13.194880    1.874436    2.888846    -4.043058    -3.420295    11.259665    -9.794581    8.641852    18.075899    0.000000    0.000000    0.000000    -4.749531    2.581434    2.125229    3.421537    -3.354640    -3.545905    8.246233    1.191150    -8.673612    0.000000    0.000000    0.000000    
99.280640    87.597092    -14.976282    -4.384453    -1.182916    84.148094    2.715125    -13.371092    -0.207412    -2.155810    3.627913    -0.457457    -0.761424    22.017426    -9.650771    11.995214    -1.905598    -8.193884    12.929607    -1.224524    -2.974737    -8.731148    -2.939565    6.487026    2.732170    2.809991    -1.052479    13.103593    3.171742    2.934919    -14.203613    0.147196    3.176831    17.441223    -2.413608    10.792303    -2.686264    -2.691555    0.707184    -9.731812    -2.803970    1.516701    13.214738    1.844578    2.917022    -4.058210    -3.387553    11.229593    -9.785269    8.627653    18.085892    0.000000    0.000000    0.000000    -4.729005    2.558749    2.135430    3.399944    -3.344094    -3.560338    8.240177    1.202822    -8.654153    0.000000    0.000000    0.000000    
99.288727    87.596336    -14.981143    -4.378105    -1.182745    84.145035    2.725555    -13.388715    -0.204555    -2.160778    3.646714    -0.455772    -0.731261    21.987356    -9.640450    11.913850    -1.872732    -8.197475    12.953770    -1.235695    -2.953039    -8.725965    -2.895684    6.437521    2.760654    2.812616    -1.066008    13.113690    3.182763    3.000525    -14.221452    0.126399    3.184405    17.451260    -2.319022    10.765067    -2.681430    -2.704285    0.723915    -9.830820    -2.816915    1.507994    13.213146    1.859394    2.897358    -4.059285    -3.391059    11.259456    -9.631676    8.626528    18.009195    0.000000    0.000000    0.000000    -4.728947    2.581075    2.138609    3.392232    -3.364658    -3.578206    8.265643    1.210837    -8.638381    0.000000    0.000000    0.000000    
99.305603    87.591469    -14.992934    -4.352459    -1.180831    84.144699    2.726159    -13.374267    -0.191514    -2.143100    3.619921    -0.443634    -0.695532    22.043604    -9.638132    11.826703    -1.904968    -8.203990    12.940828    -1.233272    -3.009825    -8.701780    -2.867139    6.446106    2.808273    2.885010    -1.075000    13.083416    3.252067    2.975067    -14.213362    0.161041    3.168483    17.420095    -2.269943    10.761284    -2.682851    -2.705850    0.720200    -9.894937    -2.822050    1.538502    13.196320    1.897545    2.880580    -4.050852    -3.394928    11.242143    -9.780759    8.599477    18.074162    0.000000    0.000000    0.000000    -4.750411    2.631644    2.136497    3.399849    -3.384190    -3.528904    8.240174    1.188706    -8.658909    0.000000    0.000000    0.000000    
99.311485    87.590958    -14.999268    -4.348643    -1.180460    84.132530    2.732562    -13.371887    -0.185235    -2.137542    3.597152    -0.438548    -0.693657    22.011526    -9.624232    11.773875    -1.809913    -8.207131    12.952983    -1.244089    -3.009901    -8.690878    -2.810168    6.434258    2.892554    2.973023    -1.078188    12.833405    3.318038    2.829660    -14.208194    0.163209    3.165410    17.411259    -2.245734    10.763328    -2.696543    -2.686971    0.716955    -9.895890    -2.805719    1.567781    13.191704    1.909190    2.885476    -4.053934    -3.398288    11.268209    -9.756213    8.596942    18.056553    0.000000    0.000000    0.000000    -4.750545    2.636089    2.139452    3.397519    -3.382488    -3.525019    8.248576    1.179266    -8.674398    0.000000    0.000000    0.000000    
99.319740    87.589523    -15.006068    -4.338109    -1.184673    84.124290    2.633765    -13.328348    -0.158371    -1.937361    3.507424    -0.406847    -0.681996    22.178715    -9.616337    11.692906    -1.996108    -8.193441    12.923111    -1.228105    -3.112506    -8.738740    -2.825298    6.422010    2.923412    2.902350    -1.119169    13.095199    3.278997    3.036860    -14.317219    0.200360    3.076961    17.418835    -2.155086    10.747646    -2.714860    -2.700275    0.750038    -9.853712    -2.818469    1.578788    13.194666    1.933890    2.863597    -4.061167    -3.396254    11.181355    -9.761952    8.542310    18.159571    0.000000    0.000000    0.000000    -4.740545    2.650193    2.145937    3.377107    -3.383033    -3.542689    8.243866    1.180977    -8.650395    0.000000    0.000000    0.000000    
